<svg xmlns="http://www.w3.org/2000/svg" viewBox="0 0 72 72"><defs><style>.cls-1{fill:#476ae3;}.cls-2{fill:#ef4c59;}.cls-3{fill:#ffc31d;}</style></defs><title>logo-symbol-multi color</title><g id="Calque_1" data-name="Calque 1"><polygon class="cls-1" points="32 12 12 12 12 44 20 44 20 20 32 20 32 12"/><polygon class="cls-1" points="52 52 28 52 28 60 60 60 60 40 52 40 52 52"/><polygon class="cls-2" points="0 60 12 60 12 72 20 72 20 52 0 52 0 60"/><polygon class="cls-3" points="72 12 60 12 60 0 52 0 52 12 40 12 40 20 52 20 52 32 60 32 60 20 72 20 72 12"/></g></svg>