<svg width="512" height="240" viewBox="0 0 512 240" fill="none" xmlns="http://www.w3.org/2000/svg">
<rect x="48" y="45" width="30" height="30" fill="#FFD800"/>
<rect x="48" y="75" width="30" height="30" fill="#FFAF00"/>
<rect x="48" y="105" width="30" height="30" fill="#FF8205"/>
<rect x="48" y="135" width="30" height="30" fill="#FA500F"/>
<rect x="48" y="165" width="30" height="30" fill="#E10500"/>
<rect x="78" y="165" width="30" height="30" fill="#E10500"/>
<rect x="108" y="165" width="30" height="30" fill="#E10500"/>
<rect x="138" y="135" width="30" height="30" fill="#FA500F"/>
<rect x="138" y="105" width="30" height="30" fill="#FF8205"/>
<rect x="138" y="75" width="30" height="30" fill="#FFAF00"/>
<rect x="78" y="45" width="30" height="30" fill="#FFD800"/>
<rect x="108" y="45" width="30" height="30" fill="#FFD800"/>
<path d="M221.25 146H205.989V96.5455H221.926C226.723 96.5455 230.829 97.5355 234.241 99.5156C237.654 101.48 240.27 104.305 242.089 107.991C243.909 111.662 244.818 116.057 244.818 121.176C244.818 126.328 243.901 130.763 242.065 134.482C240.23 138.184 237.558 141.034 234.048 143.03C230.539 145.01 226.273 146 221.25 146ZM211.977 140.688H220.864C224.953 140.688 228.341 139.899 231.03 138.321C233.718 136.743 235.723 134.498 237.043 131.584C238.363 128.67 239.023 125.201 239.023 121.176C239.023 117.184 238.371 113.747 237.067 110.865C235.763 107.967 233.815 105.746 231.223 104.2C228.631 102.639 225.403 101.858 221.54 101.858H211.977V140.688ZM269.159 146.773C265.811 146.773 262.873 145.976 260.345 144.382C257.834 142.788 255.87 140.559 254.453 137.693C253.053 134.828 252.352 131.479 252.352 127.648C252.352 123.784 253.053 120.411 254.453 117.53C255.87 114.648 257.834 112.411 260.345 110.817C262.873 109.223 265.811 108.426 269.159 108.426C272.508 108.426 275.438 109.223 277.949 110.817C280.476 112.411 282.44 114.648 283.841 117.53C285.258 120.411 285.966 123.784 285.966 127.648C285.966 131.479 285.258 134.828 283.841 137.693C282.44 140.559 280.476 142.788 277.949 144.382C275.438 145.976 272.508 146.773 269.159 146.773ZM269.159 141.653C271.703 141.653 273.795 141.001 275.438 139.697C277.08 138.393 278.295 136.679 279.084 134.554C279.873 132.429 280.267 130.127 280.267 127.648C280.267 125.169 279.873 122.858 279.084 120.717C278.295 118.576 277.08 116.846 275.438 115.526C273.795 114.205 271.703 113.545 269.159 113.545C266.616 113.545 264.523 114.205 262.881 115.526C261.239 116.846 260.023 118.576 259.234 120.717C258.446 122.858 258.051 125.169 258.051 127.648C258.051 130.127 258.446 132.429 259.234 134.554C260.023 136.679 261.239 138.393 262.881 139.697C264.523 141.001 266.616 141.653 269.159 141.653ZM309.733 146.773C306.256 146.773 303.262 145.952 300.75 144.31C298.239 142.668 296.307 140.406 294.955 137.524C293.603 134.643 292.926 131.35 292.926 127.648C292.926 123.881 293.619 120.556 295.003 117.675C296.404 114.777 298.352 112.515 300.847 110.889C303.358 109.247 306.288 108.426 309.637 108.426C312.245 108.426 314.595 108.909 316.688 109.875C318.781 110.841 320.495 112.193 321.831 113.932C323.167 115.67 323.997 117.699 324.319 120.017H318.62C318.185 118.327 317.219 116.83 315.722 115.526C314.241 114.205 312.245 113.545 309.733 113.545C307.512 113.545 305.564 114.125 303.89 115.284C302.231 116.427 300.935 118.045 300.002 120.138C299.084 122.214 298.625 124.653 298.625 127.455C298.625 130.32 299.076 132.815 299.978 134.94C300.895 137.065 302.183 138.715 303.841 139.891C305.516 141.066 307.48 141.653 309.733 141.653C311.214 141.653 312.559 141.396 313.766 140.881C314.973 140.366 315.996 139.625 316.833 138.659C317.67 137.693 318.266 136.534 318.62 135.182H324.319C323.997 137.371 323.2 139.343 321.928 141.098C320.672 142.837 319.006 144.221 316.929 145.251C314.869 146.266 312.47 146.773 309.733 146.773ZM358.922 117.216L353.803 118.665C353.481 117.812 353.006 116.982 352.378 116.178C351.766 115.357 350.929 114.68 349.867 114.149C348.804 113.618 347.444 113.352 345.786 113.352C343.516 113.352 341.624 113.875 340.111 114.922C338.614 115.952 337.865 117.264 337.865 118.858C337.865 120.275 338.381 121.393 339.411 122.214C340.441 123.036 342.051 123.72 344.24 124.267L349.746 125.619C353.062 126.424 355.533 127.656 357.159 129.314C358.785 130.956 359.598 133.073 359.598 135.665C359.598 137.79 358.987 139.689 357.763 141.364C356.556 143.038 354.865 144.358 352.692 145.324C350.519 146.29 347.991 146.773 345.11 146.773C341.327 146.773 338.195 145.952 335.716 144.31C333.237 142.668 331.667 140.269 331.007 137.114L336.417 135.761C336.932 137.758 337.906 139.255 339.338 140.253C340.787 141.251 342.679 141.75 345.013 141.75C347.669 141.75 349.778 141.187 351.34 140.06C352.917 138.917 353.706 137.548 353.706 135.955C353.706 134.667 353.256 133.588 352.354 132.719C351.453 131.833 350.068 131.173 348.201 130.739L342.019 129.29C338.622 128.485 336.127 127.237 334.533 125.547C332.955 123.84 332.167 121.707 332.167 119.148C332.167 117.055 332.754 115.204 333.929 113.594C335.121 111.984 336.739 110.72 338.783 109.803C340.844 108.885 343.178 108.426 345.786 108.426C349.456 108.426 352.338 109.231 354.431 110.841C356.54 112.451 358.037 114.576 358.922 117.216ZM384.308 108.909V113.739H365.086V108.909H384.308ZM370.688 100.023H376.387V135.375C376.387 136.985 376.621 138.192 377.087 138.997C377.57 139.786 378.182 140.317 378.923 140.591C379.679 140.848 380.476 140.977 381.313 140.977C381.941 140.977 382.456 140.945 382.859 140.881C383.261 140.8 383.583 140.736 383.825 140.688L384.984 145.807C384.597 145.952 384.058 146.097 383.366 146.241C382.674 146.402 381.796 146.483 380.734 146.483C379.124 146.483 377.546 146.137 376.001 145.445C374.471 144.752 373.2 143.698 372.185 142.281C371.187 140.865 370.688 139.078 370.688 136.92V100.023ZM392.88 146V108.909H398.386V114.511H398.772C399.448 112.676 400.672 111.187 402.442 110.044C404.213 108.901 406.21 108.33 408.431 108.33C408.85 108.33 409.373 108.338 410.001 108.354C410.629 108.37 411.103 108.394 411.425 108.426V114.222C411.232 114.173 410.79 114.101 410.097 114.004C409.421 113.892 408.705 113.835 407.948 113.835C406.145 113.835 404.535 114.214 403.119 114.97C401.718 115.711 400.607 116.741 399.786 118.061C398.981 119.365 398.579 120.854 398.579 122.528V146H392.88ZM429.096 146.869C426.745 146.869 424.612 146.427 422.696 145.541C420.781 144.64 419.259 143.344 418.132 141.653C417.006 139.947 416.442 137.886 416.442 135.472C416.442 133.347 416.861 131.624 417.698 130.304C418.535 128.968 419.654 127.921 421.054 127.165C422.455 126.408 424 125.845 425.691 125.474C427.397 125.088 429.112 124.782 430.834 124.557C433.088 124.267 434.915 124.05 436.316 123.905C437.732 123.744 438.763 123.478 439.407 123.108C440.067 122.738 440.397 122.094 440.397 121.176V120.983C440.397 118.6 439.745 116.749 438.441 115.429C437.153 114.109 435.197 113.449 432.573 113.449C429.852 113.449 427.719 114.045 426.174 115.236C424.628 116.427 423.542 117.699 422.914 119.051L417.505 117.119C418.471 114.866 419.758 113.111 421.368 111.855C422.994 110.583 424.765 109.698 426.681 109.199C428.613 108.684 430.512 108.426 432.38 108.426C433.571 108.426 434.939 108.571 436.485 108.861C438.046 109.134 439.551 109.706 441 110.575C442.465 111.445 443.681 112.757 444.647 114.511C445.613 116.266 446.096 118.616 446.096 121.562V146H440.397V140.977H440.107C439.721 141.782 439.077 142.643 438.175 143.561C437.274 144.479 436.074 145.259 434.577 145.903C433.08 146.547 431.253 146.869 429.096 146.869ZM429.965 141.75C432.219 141.75 434.118 141.307 435.664 140.422C437.225 139.536 438.4 138.393 439.189 136.993C439.994 135.592 440.397 134.119 440.397 132.574V127.358C440.155 127.648 439.624 127.913 438.803 128.155C437.998 128.38 437.064 128.581 436.002 128.759C434.955 128.92 433.933 129.064 432.935 129.193C431.953 129.306 431.156 129.402 430.544 129.483C429.063 129.676 427.679 129.99 426.391 130.425C425.119 130.843 424.089 131.479 423.3 132.332C422.527 133.17 422.141 134.312 422.141 135.761C422.141 137.741 422.873 139.239 424.338 140.253C425.819 141.251 427.695 141.75 429.965 141.75ZM462.196 96.5455V146H456.497V96.5455H462.196Z" fill="white"/>
</svg>
