<svg width="529" height="251" viewBox="0 0 529 251" fill="none" xmlns="http://www.w3.org/2000/svg">
<rect x="64" y="58" width="27" height="27" fill="#FFD800"/>
<rect x="64" y="85" width="27" height="27" fill="#FFAF00"/>
<rect x="64" y="112" width="27" height="27" fill="#FF8205"/>
<rect x="64" y="139" width="27" height="27" fill="#FA500F"/>
<rect x="64" y="166" width="27" height="27" fill="#E10500"/>
<rect x="91" y="166" width="27" height="27" fill="#E10500"/>
<rect x="118" y="166" width="27" height="27" fill="#E10500"/>
<rect x="145" y="139" width="27" height="27" fill="#FA500F"/>
<rect x="145" y="112" width="27" height="27" fill="#FF8205"/>
<rect x="145" y="85" width="27" height="27" fill="#FFAF00"/>
<rect x="91" y="58" width="27" height="27" fill="#FFD800"/>
<rect x="118" y="58" width="27" height="27" fill="#FFD800"/>
<path d="M238.636 152H221.878V102.545H238.974C243.884 102.545 248.102 103.536 251.628 105.516C255.17 107.48 257.89 110.305 259.79 113.991C261.689 117.678 262.639 122.089 262.639 127.224C262.639 132.376 261.681 136.803 259.766 140.506C257.866 144.208 255.121 147.05 251.531 149.03C247.957 151.01 243.659 152 238.636 152ZM230.837 144.249H238.202C241.647 144.249 244.52 143.621 246.822 142.365C249.125 141.093 250.855 139.202 252.014 136.69C253.173 134.163 253.753 131.008 253.753 127.224C253.753 123.441 253.173 120.302 252.014 117.807C250.855 115.295 249.141 113.42 246.871 112.18C244.617 110.925 241.816 110.297 238.467 110.297H230.837V144.249ZM286.944 152.724C283.322 152.724 280.183 151.928 277.526 150.334C274.87 148.74 272.809 146.51 271.344 143.645C269.896 140.779 269.171 137.431 269.171 133.599C269.171 129.768 269.896 126.411 271.344 123.53C272.809 120.648 274.87 118.411 277.526 116.817C280.183 115.223 283.322 114.426 286.944 114.426C290.566 114.426 293.705 115.223 296.362 116.817C299.018 118.411 301.07 120.648 302.519 123.53C303.984 126.411 304.717 129.768 304.717 133.599C304.717 137.431 303.984 140.779 302.519 143.645C301.07 146.51 299.018 148.74 296.362 150.334C293.705 151.928 290.566 152.724 286.944 152.724ZM286.992 145.722C288.956 145.722 290.598 145.182 291.918 144.104C293.238 143.009 294.22 141.544 294.864 139.709C295.524 137.874 295.854 135.829 295.854 133.575C295.854 131.305 295.524 129.253 294.864 127.418C294.22 125.566 293.238 124.093 291.918 122.999C290.598 121.904 288.956 121.357 286.992 121.357C284.98 121.357 283.306 121.904 281.969 122.999C280.649 124.093 279.659 125.566 278.999 127.418C278.355 129.253 278.033 131.305 278.033 133.575C278.033 135.829 278.355 137.874 278.999 139.709C279.659 141.544 280.649 143.009 281.969 144.104C283.306 145.182 284.98 145.722 286.992 145.722ZM328.315 152.724C324.612 152.724 321.433 151.911 318.777 150.286C316.136 148.66 314.1 146.414 312.667 143.548C311.251 140.667 310.542 137.35 310.542 133.599C310.542 129.832 311.267 126.508 312.716 123.626C314.164 120.729 316.209 118.475 318.849 116.865C321.505 115.239 324.645 114.426 328.267 114.426C331.277 114.426 333.941 114.982 336.26 116.092C338.594 117.187 340.453 118.741 341.838 120.753C343.222 122.749 344.011 125.083 344.204 127.756H335.849C335.511 125.969 334.706 124.48 333.434 123.288C332.179 122.081 330.496 121.477 328.387 121.477C326.6 121.477 325.031 121.96 323.679 122.926C322.326 123.876 321.272 125.244 320.515 127.031C319.775 128.818 319.404 130.959 319.404 133.455C319.404 135.982 319.775 138.155 320.515 139.974C321.256 141.777 322.294 143.17 323.63 144.152C324.983 145.118 326.568 145.601 328.387 145.601C329.675 145.601 330.826 145.359 331.841 144.876C332.871 144.377 333.732 143.661 334.424 142.727C335.117 141.794 335.592 140.659 335.849 139.322H344.204C343.995 141.946 343.222 144.273 341.886 146.301C340.55 148.313 338.731 149.891 336.429 151.034C334.127 152.161 331.422 152.724 328.315 152.724ZM380.697 124.713L372.729 125.582C372.503 124.777 372.109 124.021 371.545 123.312C370.998 122.604 370.258 122.033 369.324 121.598C368.39 121.163 367.247 120.946 365.895 120.946C364.076 120.946 362.546 121.34 361.307 122.129C360.083 122.918 359.48 123.94 359.496 125.196C359.48 126.275 359.874 127.152 360.679 127.828C361.5 128.504 362.852 129.06 364.736 129.494L371.062 130.847C374.572 131.603 377.18 132.803 378.886 134.445C380.609 136.087 381.478 138.236 381.494 140.892C381.478 143.226 380.794 145.287 379.442 147.074C378.106 148.845 376.246 150.229 373.864 151.227C371.481 152.225 368.744 152.724 365.653 152.724C361.114 152.724 357.459 151.775 354.69 149.875C351.921 147.959 350.271 145.295 349.74 141.882L358.264 141.061C358.651 142.735 359.472 143.999 360.727 144.852C361.983 145.705 363.617 146.132 365.629 146.132C367.706 146.132 369.372 145.705 370.628 144.852C371.9 143.999 372.536 142.945 372.536 141.689C372.536 140.626 372.125 139.749 371.304 139.057C370.499 138.365 369.243 137.833 367.537 137.463L361.21 136.135C357.652 135.394 355.02 134.147 353.314 132.392C351.607 130.621 350.762 128.384 350.778 125.679C350.762 123.393 351.382 121.413 352.638 119.739C353.91 118.048 355.672 116.744 357.926 115.827C360.196 114.893 362.812 114.426 365.774 114.426C370.121 114.426 373.542 115.352 376.037 117.203C378.548 119.054 380.102 121.558 380.697 124.713ZM407.224 114.909V121.67H385.901V114.909H407.224ZM391.165 106.023H399.907V140.844C399.907 142.019 400.084 142.92 400.438 143.548C400.808 144.16 401.291 144.579 401.887 144.804C402.483 145.029 403.143 145.142 403.867 145.142C404.415 145.142 404.914 145.102 405.364 145.021C405.831 144.941 406.185 144.868 406.427 144.804L407.9 151.638C407.433 151.799 406.765 151.976 405.896 152.169C405.042 152.362 403.996 152.475 402.756 152.507C400.567 152.571 398.595 152.241 396.84 151.517C395.085 150.777 393.693 149.634 392.663 148.088C391.648 146.543 391.149 144.611 391.165 142.293V106.023ZM414.534 152V114.909H423.01V121.091H423.397C424.073 118.95 425.232 117.3 426.874 116.141C428.532 114.965 430.424 114.378 432.549 114.378C433.032 114.378 433.571 114.402 434.167 114.45C434.778 114.482 435.285 114.539 435.688 114.619V122.661C435.318 122.532 434.73 122.419 433.925 122.322C433.136 122.21 432.372 122.153 431.631 122.153C430.037 122.153 428.605 122.5 427.333 123.192C426.077 123.868 425.087 124.81 424.363 126.017C423.638 127.224 423.276 128.617 423.276 130.195V152H414.534ZM451.505 152.749C449.154 152.749 447.037 152.33 445.154 151.493C443.286 150.64 441.805 149.384 440.711 147.726C439.632 146.068 439.093 144.023 439.093 141.592C439.093 139.5 439.479 137.769 440.252 136.401C441.025 135.032 442.079 133.938 443.415 133.116C444.751 132.295 446.257 131.676 447.931 131.257C449.621 130.822 451.368 130.509 453.171 130.315C455.344 130.09 457.107 129.889 458.459 129.712C459.811 129.518 460.793 129.229 461.405 128.842C462.033 128.44 462.347 127.82 462.347 126.983V126.838C462.347 125.019 461.808 123.61 460.729 122.612C459.65 121.614 458.097 121.115 456.069 121.115C453.927 121.115 452.229 121.582 450.973 122.516C449.734 123.449 448.897 124.552 448.462 125.824L440.3 124.665C440.944 122.411 442.007 120.527 443.488 119.014C444.969 117.485 446.78 116.342 448.921 115.585C451.062 114.812 453.428 114.426 456.02 114.426C457.807 114.426 459.586 114.635 461.357 115.054C463.128 115.473 464.746 116.165 466.211 117.131C467.676 118.08 468.851 119.376 469.736 121.018C470.638 122.661 471.088 124.713 471.088 127.176V152H462.685V146.905H462.395C461.864 147.935 461.115 148.901 460.15 149.803C459.2 150.688 458 151.404 456.551 151.952C455.119 152.483 453.436 152.749 451.505 152.749ZM453.775 146.325C455.529 146.325 457.051 145.979 458.338 145.287C459.626 144.579 460.616 143.645 461.309 142.486C462.017 141.327 462.371 140.063 462.371 138.695V134.324C462.097 134.549 461.631 134.759 460.971 134.952C460.327 135.145 459.602 135.314 458.797 135.459C457.992 135.604 457.195 135.732 456.407 135.845C455.618 135.958 454.934 136.054 454.354 136.135C453.05 136.312 451.883 136.602 450.853 137.004C449.822 137.407 449.009 137.97 448.414 138.695C447.818 139.403 447.52 140.321 447.52 141.447C447.52 143.057 448.108 144.273 449.283 145.094C450.458 145.915 451.955 146.325 453.775 146.325ZM488.62 102.545V152H479.878V102.545H488.62Z" fill="white"/>
</svg>
