<?xml version="1.0" encoding="UTF-8"?>
<svg id="Calque_2" data-name="Calque 2" xmlns="http://www.w3.org/2000/svg" viewBox="0 0 46.92 40.25">
  <defs>
    <style>
      .cls-1 {
        fill: #003527;
      }

      .cls-2 {
        fill: #57aa74;
      }
    </style>
  </defs>
  <g id="Calque_1-2" data-name="Calque 1">
    <g>
      <path class="cls-2" d="M13.46,6.97h30.59c1.58,0,2.87,1.28,2.87,2.87v27.55c0,1.58-1.28,2.87-2.87,2.87H2.87c-1.58,0-2.87-1.28-2.87-2.87v-16.95C0,13,6.03,6.97,13.46,6.97"/>
      <path class="cls-1" d="M13.46,6.97h28.22v-1.11c0-1.09-.89-1.98-1.98-1.98h-20c-.64-1.11-1.26-2.2-1.72-3.13-.22-.44-.87-.75-1.61-.75H5.16c-.73,0-1.42.29-1.61.73C2.46,3.3,1.5,7.17.74,11.8c-.47,2.85-.74,6.06-.74,8.63C0,13,6.03,6.97,13.46,6.97"/>
      <path class="cls-1" d="M36.32,24c0,.07-.04.12-.09.16-6.08,4.84-11.26,6.65-15.42,5.44-3.7-1.07-5.34-3.89-5.84-5.01h-3c-.36,0-.6-.3-.6-.6s.23-.6.6-.6h3c.5-1.13,2.14-3.94,5.84-5.01,4.15-1.21,9.34.61,15.42,5.44.05.04.08.1.09.16"/>
    </g>
  </g>
</svg>