<svg xmlns="http://www.w3.org/2000/svg" fill="none" viewBox="0 0 24 24" id="Electron--Streamline-Svg-Logos" height="24" width="24">
  <desc>
    Electron Streamline Icon: https://streamlinehq.com
  </desc>
  <path fill="#47848f" d="M8.808925 5.300975c-3.070975 -0.559325 -5.499075 0.0261 -6.466795 1.70225 -0.7221375 1.250775 -0.51572 2.9091 0.500595 4.68175 0.0865 0.150875 0.27895 0.20305 0.429825 0.11655 0.150875 -0.0865 0.203075 -0.27895 0.11655 -0.429825 -0.915505 -1.596825 -1.09365 -3.028 -0.50155 -4.053575 0.8039 -1.392375 2.969725 -1.91455 5.808525 -1.397525 0.1711 0.031175 0.335075 -0.082275 0.366225 -0.253375 0.031175 -0.1711 -0.082275 -0.335075 -0.253375 -0.36625ZM13.35055 2.44848c-0.2506 0.484645 -0.75645 0.815895 -1.33965 0.815895 -0.8324 0 -1.5072 -0.674775 -1.5072 -1.507185C10.5037 0.9247925 11.1785 0.25 12.0109 0.25c0.832375 0 1.507175 0.6747925 1.507175 1.50719 0 0.021775 -0.00045 0.0434425 -0.001375 0.06499C16.0116 3.112525 17.745275 7.51265 17.745275 12.59615c0 2.09075 -0.292325 4.097125 -0.836575 5.836375 -0.05195 0.165975 -0.2286 0.258425 -0.394575 0.206475 -0.165975 -0.051925 -0.258425 -0.2286 -0.2065 -0.394575 0.52475 -1.676875 0.807825 -3.6199 0.807825 -5.648275 0 -4.786675 -1.591125 -8.905625 -3.7649 -10.14767ZM2.555125 16.62095c0.037175 -0.002725 0.074725 -0.004125 0.112575 -0.004125 0.8324 0 1.5072 0.674775 1.5072 1.507175 0 0.8324 -0.6748 1.5072 -1.5072 1.5072 -0.832385 0 -1.5071775 -0.6748 -1.5071775 -1.5072 0 -0.56665 0.312715 -1.060275 0.7749825 -1.3177C1.7084825 13.989375 4.669275 10.213325 9.1437 7.630025c1.858525 -1.073025 3.793725 -1.83465 5.611825 -2.224175 0.17005 -0.03645 0.33745 0.071875 0.373875 0.24195 0.03645 0.17005 -0.071875 0.33745 -0.241925 0.373875 -1.75215 0.3754 -3.62595 1.11285 -5.428875 2.153775 -4.21375 2.432825 -7.0000175 5.93925 -6.903475 8.4455Zm17.4668 2.2481c-0.1252 -0.21975 -0.196725 -0.47405 -0.196725 -0.74505 0 -0.8324 0.6748 -1.507175 1.507175 -1.507175 0.8324 0 1.5072 0.674775 1.5072 1.507175 0 0.8324 -0.6748 1.5072 -1.5072 1.5072 -0.328 0 -0.63155 -0.1048 -0.878975 -0.282725 -2.4044 1.4145 -6.997025 0.69305 -11.31895 -1.8022 -1.839775 -1.0622 -3.452975 -2.3421 -4.6947 -3.706675 -0.117075 -0.128625 -0.107675 -0.3278 0.02095 -0.44485 0.128625 -0.11705 0.3278 -0.10765 0.44485 0.020975 1.1969 1.3153 2.759025 2.55465 4.543825 3.5851 4.078775 2.3549 8.374 3.055675 10.57255 1.868225Zm-0.098675 -5.412525c-0.112375 0.132725 -0.311075 0.14925 -0.443825 0.036875 -0.13275 -0.11235 -0.14925 -0.31105 -0.0369 -0.4438 1.8585 -2.1955 2.4846 -4.3261 1.68245 -5.715475 -0.582275 -1.00855 -1.876475 -1.568375 -3.672025 -1.591725 -0.173925 -0.002275 -0.31305 -0.145075 -0.3108 -0.318975 0.002275 -0.1739 0.145075 -0.31305 0.318975 -0.310775 1.99645 0.02595 3.498675 0.675775 4.209275 1.906575 0.96575 1.672675 0.26365 4.06185 -1.74715 6.4373Zm-12.61775 5.55025c-0.05865 -0.163725 0.02655 -0.344 0.1903 -0.402625 0.163725 -0.05865 0.344 0.02655 0.402625 0.1903 0.9718 2.7136 2.505875 4.32575 4.112475 4.32575 1.1555 0 2.278875 -0.827725 3.19345 -2.349075 0.089625 -0.14905 0.283075 -0.19725 0.43215 -0.10765 0.14905 0.089625 0.19725 0.2831 0.10765 0.43215C14.726475 22.788475 13.42145 23.75 12.0109 23.75c-1.934075 0 -3.654075 -1.8075 -4.7054 -4.743225Zm14.904275 -0.882775c0 -0.48455 -0.392825 -0.877375 -0.8774 -0.877375 -0.48455 0 -0.877375 0.392825 -0.877375 0.877375 0 0.484575 0.392825 0.877375 0.877375 0.877375 0.484575 0 0.8774 -0.3928 0.8774 -0.877375Zm-19.542075 0.877375c0.484575 0 0.8774 -0.3928 0.8774 -0.877375 0 -0.48455 -0.392825 -0.877375 -0.8774 -0.877375 -0.48455 0 -0.8773675 0.392825 -0.8773675 0.877375 0 0.484575 0.3928175 0.877375 0.8773675 0.877375Zm9.3432 -16.3668c0.48455 0 0.877375 -0.3928225 0.877375 -0.877385 0 -0.4845625 -0.392825 -0.87738 -0.877375 -0.87738 -0.484575 0 -0.8774 0.3928175 -0.8774 0.87738 0 0.4845625 0.392825 0.877385 0.8774 0.877385Zm0.2302 11.027425c-0.5887 0.1272 -1.168675 -0.246925 -1.296125 -0.8356 -0.12695 -0.5887 0.246925 -1.168675 0.835625 -1.296125 0.5887 -0.1272 1.168675 0.246925 1.296125 0.835625 0.1272 0.588675 -0.246925 1.16865 -0.835625 1.2961Z" stroke-width="0.25"></path>
</svg>