<svg xmlns="http://www.w3.org/2000/svg" xmlns:xlink="http://www.w3.org/1999/xlink" width="1024" zoomAndPan="magnify" viewBox="0 0 768 767.999994" height="1024" preserveAspectRatio="xMidYMid meet" version="1.0"><defs><g/><clipPath id="8155d7f974"><path d="M 67.039062 67.039062 L 700.789062 67.039062 L 700.789062 700.789062 L 67.039062 700.789062 Z M 67.039062 67.039062 " clip-rule="nonzero"/></clipPath></defs><g clip-path="url(#8155d7f974)"><path fill="#121212" d="M 383.914062 67.039062 C 208.910156 67.039062 67.039062 208.910156 67.039062 383.914062 C 67.039062 558.921875 208.910156 700.789062 383.914062 700.789062 C 558.921875 700.789062 700.789062 558.921875 700.789062 383.914062 C 700.789062 208.910156 558.921875 67.039062 383.914062 67.039062 " fill-opacity="1" fill-rule="nonzero"/></g><g fill="#ffffff" fill-opacity="1"><g transform="translate(256.322891, 530.52236)"><g><path d="M 177.46875 -149.546875 C 188.019531 -147.878906 197.664062 -143.570312 206.40625 -136.625 C 215.15625 -129.6875 222.097656 -121.078125 227.234375 -110.796875 C 232.378906 -100.523438 234.953125 -89.5625 234.953125 -77.90625 C 234.953125 -63.1875 231.203125 -49.921875 223.703125 -38.109375 C 216.203125 -26.304688 205.300781 -17.003906 191 -10.203125 C 176.695312 -3.398438 159.828125 0 140.390625 0 L 32.078125 0 L 32.078125 -290.359375 L 136.21875 -290.359375 C 155.9375 -290.359375 172.738281 -287.09375 186.625 -280.5625 C 200.507812 -274.039062 210.921875 -265.222656 217.859375 -254.109375 C 224.804688 -243.003906 228.28125 -230.507812 228.28125 -216.625 C 228.28125 -199.40625 223.628906 -185.171875 214.328125 -173.921875 C 205.023438 -162.671875 192.738281 -154.546875 177.46875 -149.546875 Z M 69.984375 -164.96875 L 133.71875 -164.96875 C 151.488281 -164.96875 165.234375 -169.128906 174.953125 -177.453125 C 184.679688 -185.785156 189.546875 -197.3125 189.546875 -212.03125 C 189.546875 -226.75 184.679688 -238.273438 174.953125 -246.609375 C 165.234375 -254.941406 151.210938 -259.109375 132.890625 -259.109375 L 69.984375 -259.109375 Z M 137.046875 -31.25 C 155.929688 -31.25 170.648438 -35.691406 181.203125 -44.578125 C 191.765625 -53.460938 197.046875 -65.820312 197.046875 -81.65625 C 197.046875 -97.757812 191.488281 -110.460938 180.375 -119.765625 C 169.269531 -129.066406 154.410156 -133.71875 135.796875 -133.71875 L 69.984375 -133.71875 L 69.984375 -31.25 Z M 137.046875 -31.25 "/></g></g></g></svg>