<svg xmlns="http://www.w3.org/2000/svg" xmlns:xlink="http://www.w3.org/1999/xlink" width="1024" zoomAndPan="magnify" viewBox="0 0 768 767.999994" height="1024" preserveAspectRatio="xMidYMid meet" version="1.0"><defs><g/><clipPath id="0456644909"><path d="M 67.039062 67.039062 L 700.789062 67.039062 L 700.789062 700.789062 L 67.039062 700.789062 Z M 67.039062 67.039062 " clip-rule="nonzero"/></clipPath></defs><g clip-path="url(#0456644909)"><path fill="#ffffff" d="M 383.914062 67.039062 C 208.910156 67.039062 67.039062 208.910156 67.039062 383.914062 C 67.039062 558.921875 208.910156 700.789062 383.914062 700.789062 C 558.921875 700.789062 700.789062 558.921875 700.789062 383.914062 C 700.789062 208.910156 558.921875 67.039062 383.914062 67.039062 " fill-opacity="1" fill-rule="nonzero"/></g><g fill="#121212" fill-opacity="1"><g transform="translate(230.744788, 559.130189)"><g><path d="M 213 -179.5 C 225.664062 -177.5 237.25 -172.332031 247.75 -164 C 258.25 -155.664062 266.582031 -145.332031 272.75 -133 C 278.914062 -120.664062 282 -107.5 282 -93.5 C 282 -75.832031 277.5 -59.914062 268.5 -45.75 C 259.5 -31.582031 246.414062 -20.414062 229.25 -12.25 C 212.082031 -4.082031 191.832031 0 168.5 0 L 38.5 0 L 38.5 -348.5 L 163.5 -348.5 C 187.164062 -348.5 207.332031 -344.582031 224 -336.75 C 240.664062 -328.914062 253.164062 -318.332031 261.5 -305 C 269.832031 -291.664062 274 -276.664062 274 -260 C 274 -239.332031 268.414062 -222.25 257.25 -208.75 C 246.082031 -195.25 231.332031 -185.5 213 -179.5 Z M 84 -198 L 160.5 -198 C 181.832031 -198 198.332031 -203 210 -213 C 221.664062 -223 227.5 -236.832031 227.5 -254.5 C 227.5 -272.164062 221.664062 -286 210 -296 C 198.332031 -306 181.5 -311 159.5 -311 L 84 -311 Z M 164.5 -37.5 C 187.164062 -37.5 204.832031 -42.832031 217.5 -53.5 C 230.164062 -64.164062 236.5 -79 236.5 -98 C 236.5 -117.332031 229.832031 -132.582031 216.5 -143.75 C 203.164062 -154.914062 185.332031 -160.5 163 -160.5 L 84 -160.5 L 84 -37.5 Z M 164.5 -37.5 "/></g></g></g></svg>