<svg xmlns="http://www.w3.org/2000/svg" xmlns:xlink="http://www.w3.org/1999/xlink" width="1024" zoomAndPan="magnify" viewBox="0 0 768 767.999994" height="1024" preserveAspectRatio="xMidYMid meet" version="1.0"><defs><g/><clipPath id="b9d80003e6"><path d="M 67.039062 67.039062 L 700.789062 67.039062 L 700.789062 700.789062 L 67.039062 700.789062 Z M 67.039062 67.039062 " clip-rule="nonzero"/></clipPath></defs><g clip-path="url(#b9d80003e6)"><path fill="#ffffff" d="M 383.914062 67.039062 C 208.910156 67.039062 67.039062 208.910156 67.039062 383.914062 C 67.039062 558.921875 208.910156 700.789062 383.914062 700.789062 C 558.921875 700.789062 700.789062 558.921875 700.789062 383.914062 C 700.789062 208.910156 558.921875 67.039062 383.914062 67.039062 " fill-opacity="1" fill-rule="nonzero"/></g><g fill="#121212" fill-opacity="1"><g transform="translate(219.247375, 559.130189)"><g><path d="M 243.5 -180 C 263.832031 -175.664062 280.164062 -165.582031 292.5 -149.75 C 304.832031 -133.914062 311 -115.832031 311 -95.5 C 311 -66.164062 300.75 -42.914062 280.25 -25.75 C 259.75 -8.582031 231.164062 0 194.5 0 L 31 0 L 31 -351 L 189 -351 C 224.664062 -351 252.582031 -342.832031 272.75 -326.5 C 292.914062 -310.164062 303 -288 303 -260 C 303 -239.332031 297.582031 -222.164062 286.75 -208.5 C 275.914062 -194.832031 261.5 -185.332031 243.5 -180 Z M 116.5 -209 L 172.5 -209 C 186.5 -209 197.25 -212.082031 204.75 -218.25 C 212.25 -224.414062 216 -233.5 216 -245.5 C 216 -257.5 212.25 -266.664062 204.75 -273 C 197.25 -279.332031 186.5 -282.5 172.5 -282.5 L 116.5 -282.5 Z M 179.5 -69 C 193.832031 -69 204.914062 -72.25 212.75 -78.75 C 220.582031 -85.25 224.5 -94.664062 224.5 -107 C 224.5 -119.332031 220.414062 -129 212.25 -136 C 204.082031 -143 192.832031 -146.5 178.5 -146.5 L 116.5 -146.5 L 116.5 -69 Z M 179.5 -69 "/></g></g></g></svg>