<svg width="704" height="181" viewBox="0 0 704 181" fill="none" xmlns="http://www.w3.org/2000/svg">
<path fill-rule="evenodd" clip-rule="evenodd" d="M561.442 1.32551C547.468 3.89251 532.645 9.97651 520.442 18.1525C513.89 22.5425 498.942 37.1885 498.942 39.2185C498.942 42.0895 506.837 47.8415 519.478 54.1795C535.291 62.1075 544.484 65.0445 558.942 66.7845C568.907 67.9835 574.523 67.0225 577.155 63.6685C579.61 60.5405 587.942 44.0015 587.942 42.2565C587.942 41.4875 588.434 40.8585 589.036 40.8585C590.49 40.8585 589.38 48.7795 586.416 59.5545C585.014 64.6495 584.542 67.8585 585.194 67.8585C585.778 67.8585 593.048 66.0795 601.349 63.9055C625.307 57.6315 635.519 55.8585 647.689 55.8585C661.342 55.8585 671.827 58.3595 680.919 63.7855C684.507 65.9255 687.62 67.5025 687.838 67.2885C688.532 66.6075 682.882 58.6325 675.562 49.9595C661.589 33.4055 649.8 25.6015 632.759 21.6245C624.706 19.7455 620.525 19.4525 601.942 19.4645C582.406 19.4775 579.269 19.7265 567.595 22.1935C560.529 23.6875 549.818 26.5025 543.794 28.4505C537.77 30.3975 532.354 31.8295 531.76 31.6315C530.126 31.0865 547.6 23.2385 558.044 19.8255C576.912 13.6595 601.131 11.5335 621.612 14.2465C635.597 16.0985 636.942 16.1665 636.942 15.0175C636.942 12.2665 614.404 3.64652 601.182 1.34152C590.964 -0.440483 571.097 -0.448486 561.442 1.32551ZM635.942 61.5895C634.017 61.8165 632.078 62.3555 631.633 62.7885C631.188 63.2215 632.396 66.4525 634.316 69.9675C638.617 77.8395 642.348 87.6775 643.94 95.3505C644.633 98.6875 646.067 102.075 647.315 103.323C648.509 104.517 653.751 107.264 658.964 109.426L668.442 113.359L664.191 113.667C660.506 113.933 656.083 113.097 646.078 110.241C643.952 109.634 643.786 109.807 644.426 111.963C646.068 117.498 655.254 135.542 659.353 141.287C661.788 144.699 666.404 149.463 669.611 151.872C672.818 154.282 675.8 156.545 676.238 156.902C676.675 157.258 675.663 161.829 673.988 167.058C670.549 177.794 670.218 180.859 672.497 180.859C674.389 180.859 677.923 173.166 680.767 162.854C686.915 140.564 686.193 113.052 678.92 92.4525C673.342 76.6555 666.29 63.7935 662.179 61.9205C659.968 60.9135 643.469 60.7055 635.942 61.5895ZM211.956 70.3495C200.92 77.2085 195.743 79.3065 187.193 80.3845C184.306 80.7485 181.678 81.4765 181.353 82.0025C181.028 82.5285 182.796 85.1335 185.282 87.7905C188.042 90.7415 190.243 94.2625 190.936 96.8365C191.702 99.6795 191.969 111.03 191.756 131.705C191.41 165.459 191.607 164.347 184.709 171.516C182.509 173.802 181.013 176.164 181.384 176.766C181.843 177.509 189.904 177.859 206.532 177.859C227.72 177.859 231.085 177.651 231.6 176.308C231.934 175.438 231.291 173.793 230.135 172.558C225.875 168.01 223.458 156.586 221.97 133.973C220.785 115.955 221.889 90.0605 224.463 75.5095C226.336 64.9255 226.309 63.8585 224.172 63.8585C223.198 63.8585 217.701 66.7795 211.956 70.3495ZM412.706 64.8545C401.858 68.1205 394.602 80.3225 398.278 89.1195C403.466 101.538 424.013 97.7125 429.516 83.3035C434.213 71.0045 425.186 61.0965 412.706 64.8545ZM674.503 67.1085C674.886 68.3455 676.058 71.0615 677.108 73.1425C680.406 79.6785 684.993 92.9775 687.467 103.178C691.008 117.776 691.469 127.077 689.447 143.176C688.494 150.76 687.928 157.178 688.189 157.439C688.449 157.699 690.318 156.213 692.341 154.136C702.103 144.114 706.097 124.438 702.363 104.754C699.229 88.2345 692.979 77.6285 681.586 69.4985C678.01 66.9465 674.796 64.8585 674.445 64.8585C674.094 64.8585 674.12 65.8715 674.503 67.1085ZM275.808 78.3695C274.359 79.1565 270.831 82.9615 267.967 86.8245C262.044 94.8155 254.944 101.484 250.224 103.491C248.454 104.243 245.057 104.859 242.674 104.859C237.54 104.859 235.942 106.164 235.942 110.359C235.942 114.295 237.518 115.859 241.484 115.859C244.313 115.859 244.752 116.282 245.902 120.109C247.704 126.107 247.454 154.673 245.539 161.681C244.74 164.608 242.731 169.084 241.076 171.628C239.422 174.172 238.291 176.615 238.564 177.056C238.837 177.498 250.508 177.859 264.501 177.859C293.197 177.859 291.983 178.275 286.939 170.161C282.626 163.223 280.925 153.933 280.247 133.609L279.655 115.859H286.263C291.773 115.859 293.044 115.538 293.907 113.925C296.889 108.352 293.985 104.859 286.371 104.859H280.942V101.49C280.942 99.6365 281.623 94.2175 282.455 89.4475C284.529 77.5505 282.755 74.5945 275.808 78.3695ZM1.19182 95.5205C-1.09618 96.4435 -0.103179 98.5815 4.28582 102.178C11.1078 107.768 17.5548 121.844 25.4358 148.359C31.0418 167.22 33.3068 173.315 35.5418 175.55C37.6948 177.703 38.6538 177.859 49.7418 177.859C60.1848 177.859 61.8428 177.626 63.3648 175.945C64.3168 174.892 68.9078 161.729 73.5668 146.695C78.2248 131.66 82.9858 116.728 84.1468 113.513C86.2228 107.762 90.0898 102.801 94.8668 99.7585C96.5028 98.7165 97.0828 97.6675 96.6488 96.5365C96.0898 95.0815 94.2408 94.8605 82.7228 94.8735C75.4188 94.8825 68.7808 95.3065 67.9738 95.8175C66.6938 96.6265 66.7268 97.3615 68.2288 101.553C70.6878 108.414 70.4168 120.978 67.4408 138.03C64.2398 156.37 63.5488 159.359 62.5088 159.359C62.0418 159.359 60.0948 155.309 58.1848 150.359C50.2158 129.717 47.7628 111.05 51.9418 102.859C54.3548 98.1295 54.4598 96.2715 52.3598 95.4655C50.4748 94.7415 2.99482 94.7935 1.19182 95.5205ZM128.077 95.8435C115.365 97.7965 101.163 108.149 95.2868 119.744C92.6508 124.947 92.4418 126.202 92.4418 136.859C92.4418 147.571 92.6368 148.73 95.2938 153.776C100.936 164.495 111.063 172.868 122.632 176.378C128.895 178.278 143.206 178.267 149.64 176.356C164.935 171.814 175.707 160.822 179.526 145.861C183.526 130.191 176.961 113.16 163.297 103.759C153.776 97.2085 139.735 94.0525 128.077 95.8435ZM327.442 95.8745C316.408 97.5675 307.179 103.999 304.908 111.577C303.817 115.218 303.875 116.108 305.35 118.358C307.563 121.736 310.731 122.859 318.047 122.859C324.901 122.859 331.567 120.047 332.835 116.62C333.306 115.347 333.078 112.64 332.278 109.979C330.586 104.358 331.288 101.859 334.557 101.859C340.298 101.859 345.687 112.865 346.654 126.566C347.287 135.533 346.741 136.403 342.989 132.409C336.085 125.06 322.866 123.306 312.611 128.379C302.727 133.268 297.986 140.879 297.986 151.859C297.986 159.73 300.159 165.019 305.567 170.314C311.002 175.635 316.693 177.864 324.775 177.837C332.436 177.812 338.678 175.45 343.569 170.725L346.696 167.705L348.837 170.711C353.348 177.047 356.064 177.859 372.751 177.859C382.578 177.859 388.059 177.479 388.5 176.766C388.871 176.164 387.375 173.802 385.175 171.516C378.755 164.844 378.578 164.161 377.984 143.802L377.442 125.246L373.664 117.606C369.309 108.8 364.419 104.026 355.329 99.7045C346.247 95.3875 338.003 94.2545 327.442 95.8745ZM512.895 95.8035C508.207 97.2265 502.305 101.632 496.522 108.022L490.788 114.359L491.406 108.859C491.747 105.834 492.271 101.672 492.572 99.6085C493.077 96.1395 492.933 95.8585 490.646 95.8585C489.287 95.8585 485.151 97.9285 481.455 100.46C471.779 107.085 463.379 110.739 456.07 111.503C452.341 111.893 449.559 112.694 449.264 113.463C448.989 114.179 450.329 116.138 452.242 117.818C458.647 123.441 459.442 126.371 459.442 144.359C459.442 162.739 458.725 165.712 452.926 171.374C450.735 173.514 448.942 175.849 448.942 176.562C448.942 177.589 454.04 177.859 473.473 177.859C501.159 177.859 501.391 177.789 495.977 171.052C491.593 165.597 489.906 158.521 489.246 142.815C488.754 131.094 488.915 128.807 490.447 125.815C494.65 117.604 502.048 110.859 506.852 110.859C508.946 110.859 509.001 111.127 508.361 118.19C507.712 125.348 507.762 125.572 510.454 127.69C516.978 132.822 531.583 128.741 536.457 120.424C542.519 110.08 536.404 98.9975 522.942 95.9325C517.767 94.7535 516.411 94.7365 512.895 95.8035ZM582.942 95.5625C576.856 96.2295 567.268 99.8485 561.209 103.765C554.397 108.168 549.999 113.363 546.176 121.523C543.792 126.611 543.444 128.576 543.46 136.859C543.476 145.108 543.841 147.14 546.237 152.289C553.917 168.794 568.671 177.872 587.781 177.848C601.005 177.832 610.291 174.354 619.091 166.123C624.936 160.655 628.19 155.669 627.347 153.472C626.395 150.991 623.613 151.549 620.445 154.856C618.865 156.505 615.164 158.755 612.22 159.856C600.039 164.414 587.389 160.988 581.555 151.551C579.95 148.955 578.9 146.567 579.222 146.245C579.544 145.923 581.526 146.241 583.625 146.952C589.54 148.955 600.535 148.522 606.942 146.035C621.979 140.197 629.611 126.069 623.994 114.467C619.592 105.373 608.843 98.3055 595.589 95.7915C590.677 94.8605 589.535 94.8395 582.942 95.5625ZM426.143 100.4C415.263 108.129 405.742 111.859 396.893 111.859C392.75 111.859 393.057 114.36 397.811 119.321C399.939 121.542 402.189 124.889 402.811 126.758C403.463 128.719 403.933 136.758 403.92 145.758C403.895 163.309 402.731 167.737 397.035 171.948C395.334 173.206 393.942 175.05 393.942 176.047C393.942 177.747 395.456 177.859 418.442 177.859H442.942V175.664C442.942 174.456 441.823 172.3 440.454 170.872C436.257 166.491 433.942 154.942 433.942 138.385C433.942 126.127 435.614 107.502 437.514 98.6085C438.047 96.1135 437.839 95.8615 435.271 95.8915C433.565 95.9115 429.943 97.7005 426.143 100.4ZM141.327 104.905C153.568 119.452 149.57 171.859 136.22 171.859C127.819 171.859 121.221 148.258 123.786 127.386C126.364 106.403 134.17 96.3985 141.327 104.905ZM593.872 104.497C596.58 107.94 598.942 116.028 598.942 121.859C598.942 127.69 596.58 135.778 593.872 139.221C589.937 144.223 583.254 141.96 579.856 134.476C577.46 129.201 577.263 116.42 579.495 111.077C583.14 102.351 589.79 99.3065 593.872 104.497ZM340.065 139.158C347.505 144.822 347.699 157.972 340.428 163.691C335.152 167.841 328.664 166.007 325.572 159.492C322.435 152.88 324.29 142.83 329.295 139.324C331.827 137.551 337.832 137.458 340.065 139.158Z" fill="black"/>
</svg>
