<?xml version="1.0" encoding="UTF-8"?>
<svg id="Calque_1" data-name="Calque 1" xmlns="http://www.w3.org/2000/svg" viewBox="0 0 298.16 202.43">
  <defs>
    <style>
      .cls-1 {
        fill: #c6bcf0;
      }

      .cls-2 {
        fill: #5953e9;
      }
    </style>
  </defs>
  <g>
    <path class="cls-2" d="M295.97,115.32h0s.17-.13.17-.13L214.24,11.65c-1.45-1.83-4.11-2.15-5.95-.71l-14.67,11.51c-1.83,1.44-2.16,4.08-.74,5.93l63.14,82.08c1.42,1.84,1.09,4.48-.74,5.92l-80.23,63.23c-1.84,1.45-2.16,4.12-.71,5.96l12.01,15.24c1.45,1.83,4.1,2.16,5.94.72l102.94-80.25c1.85-1.44,2.18-4.12.73-5.97Z"/>
    <path class="cls-2" d="M175.02,127.19l14.01-10.98v.03c.52-.37,1.02-.77,1.47-1.18.02-.02.04-.04.06-.06,2.05-1.9,3.36-4.3,3.43-7.58.09-4.04-2.58-6.97-2.58-6.97l-.73-.96-1.65-2.15v.07L123.73,15.06s0-.01-.01-.01c-2.33-2.34-7.15-5.28-14.31-.65-.48.31-.94.58-1.36.81L17.23,87.74l-.11-.13-13.36,10.81c-4.28,3.46-5.01,9.7-1.65,14.06l63.86,82.85c3.57,4.62,10.2,5.5,14.84,1.95l41.02-31.34c1.21-.92,1.43-2.65.5-3.85l-12.96-16.73c-.93-1.2-.71-2.92.49-3.84l19.63-15.12s0,0,0,0c2.33-.58,3.2,1.08,3.2,1.08h0s14.31,18.2,14.31,18.2c.93,1.18,2.65,1.39,3.83.46l24.16-18.94h.02ZM105.07,144.66l-24.57,18.7c-1.19.9-2.87.69-3.8-.48l-39.87-50.37c-.94-1.19-.74-2.91.45-3.85l24.48-19.32c1.19-.94,2.91-.73,3.84.46l39.96,51c.94,1.2.72,2.94-.49,3.86ZM155.91,106.73l-22.68,16.85s-.01,0-.02,0c-2.15,1.23-3.7-.17-3.8-.25l-41.08-51.47c-.94-1.19-.75-2.91.44-3.85l23.46-18.52c1.2-.94,2.94-.72,3.87.49l40.35,52.9c.92,1.21.68,2.95-.55,3.85Z"/>
  </g>
  <g>
    <path class="cls-1" d="M297.25,105.28h0s.17-.13.17-.13L215.52,1.61c-1.45-1.83-4.11-2.15-5.95-.71l-14.67,11.51c-1.83,1.44-2.16,4.08-.74,5.93l63.14,82.08c1.42,1.84,1.09,4.48-.74,5.92l-80.23,63.23c-1.84,1.45-2.16,4.12-.71,5.96l12.01,15.24c1.45,1.83,4.1,2.16,5.94.72l102.94-80.25c1.85-1.44,2.18-4.12.73-5.97Z"/>
    <path class="cls-1" d="M176.3,117.15l14.01-10.98v.03c.52-.37,1.02-.77,1.47-1.18.02-.02.04-.04.06-.06,2.05-1.9,3.36-4.3,3.43-7.58.09-4.04-2.58-6.97-2.58-6.97l-.73-.96-1.65-2.15v.07L125.01,5.02s0-.01-.01-.01c-2.33-2.34-7.15-5.28-14.31-.65-.48.31-.94.58-1.36.81L18.51,77.7l-.11-.13-13.36,10.81c-4.28,3.46-5.01,9.7-1.65,14.06l63.86,82.85c3.57,4.62,10.2,5.5,14.84,1.95l41.02-31.34c1.21-.92,1.43-2.65.5-3.85l-12.96-16.73c-.93-1.2-.71-2.92.49-3.84l19.63-15.12s0,0,0,0c2.33-.58,3.2,1.08,3.2,1.08h0s14.31,18.2,14.31,18.2c.93,1.18,2.65,1.39,3.83.46l24.16-18.94h.02ZM106.35,134.62l-24.57,18.7c-1.19.9-2.87.69-3.8-.48l-39.87-50.37c-.94-1.19-.74-2.91.45-3.85l24.48-19.32c1.19-.94,2.91-.73,3.84.46l39.96,51c.94,1.2.72,2.94-.49,3.86ZM157.19,96.69l-22.68,16.85s-.01,0-.02,0c-2.15,1.23-3.7-.17-3.8-.25l-41.08-51.47c-.94-1.19-.75-2.91.44-3.85l23.46-18.52c1.2-.94,2.94-.72,3.87.49l40.35,52.9c.92,1.21.68,2.95-.55,3.85Z"/>
  </g>
</svg>